# xmcd CD database file
#
# Track frame offsets:
#	150
#	47467
#	116797
#	165754
#
# Disc length: 2966 seconds
#
# Revision: 0
# Processed by: cddbd v1.5.2PL0 Copyright (c) Steve Scherf et al.
# Submitted via: CDex 1.70beta2
#
DISCID=240b9404
DTITLE=Don Sugar Cane Harris - Sugar Cane's Got The Blues
DYEAR=1972
DGENRE=Jazz
TTITLE0=Liz Pineapple Wonderful
TTITLE1=Sugar Cane's Got The Blues
TTITLE2=Song For My Father
TTITLE3=Where's My Sunshine
EXTD=YEAR: 1972
EXTT0=
EXTT1=
EXTT2=
EXTT3=
PLAYORDER=
